<svg version="1.1" xmlns="http://www.w3.org/2000/svg" xmlns:xlink="http://www.w3.org/1999/xlink" width="228.06144" height="121.5" viewBox="0,0,228.06144,121.5"><defs><radialGradient cx="335.5" cy="855" r="33" gradientUnits="userSpaceOnUse" id="color-1"><stop offset="0" stop-color="#ffffff"/><stop offset="1" stop-color="#ffbfbf"/></radialGradient><radialGradient cx="416.5" cy="822" r="33" gradientUnits="userSpaceOnUse" id="color-2"><stop offset="0" stop-color="#ffffff"/><stop offset="1" stop-color="#ffbfbf"/></radialGradient></defs><g transform="translate(-246.01819,-789.5)"><g data-paper-data="{&quot;isPaintingLayer&quot;:true}" fill-rule="nonzero" stroke-linejoin="miter" stroke-miterlimit="10" stroke-dasharray="" stroke-dashoffset="0" style="mix-blend-mode: normal"><path d="M360,908.5c-54.81577,0 -100.13729,-40.64966 -107.46447,-93.4489c1.55893,-0.37805 2.98358,-1.31275 4.48748,-1.90943c3.99719,-1.58593 8.4875,-2.04089 10.36351,-5.70039c0.52224,1.33871 1.38975,2.6011 2.51475,3.48071c4.96812,3.88449 12.6973,4.29991 18.57516,5.21948c0.6457,-0.16158 10.09835,-2.4882 10.69842,-2.79385c1.64431,-0.83754 2.88465,-2.30217 4.31657,-3.46615c1.26351,-1.02709 2.61752,-1.95618 3.76955,-3.10692c1.2348,-1.23343 2.48856,-2.50331 3.36052,-4.01519c0.011,-0.01907 0.01985,-0.04054 0.02674,-0.06407c0.77954,2.22594 2.29364,4.22433 3.85076,5.99727c0.18963,0.21591 6.25807,7.14809 6.57266,7.35921c1.54917,1.03964 3.46091,1.39488 5.19764,2.07648c6.98224,2.74026 15.06365,5.14126 22.70349,3.32663c0.33191,-0.07884 9.83215,-3.85921 10.13813,-4.04951c1.48093,-0.92105 2.63496,-2.28766 3.89214,-3.49637c0.45139,-0.43398 0.65688,-1.6863 1.22537,-1.42381c1.16333,0.53716 1.54895,2.04164 2.32342,3.06245c0.51556,0.27538 8.92154,4.82428 9.53908,4.91865c1.9079,0.29155 3.82795,-0.49827 5.73781,-0.7767c3.29847,-0.48087 6.59437,-0.98406 9.87763,-1.55963c1.69061,-0.29637 3.59892,-0.06608 5.05652,-0.97239c1.67394,-1.04082 2.55194,-3.0052 3.79756,-4.53289c3.15786,-3.87294 6.19815,-7.85099 9.29467,-11.77324c0.86737,-1.09867 1.78616,-2.15864 2.6021,-3.29602c0.71477,-0.99635 0.93466,-2.46387 1.9845,-3.09747c0.58249,-0.35154 1.34913,0.35085 1.8961,0.75547c2.51133,1.85777 4.56767,4.26277 6.87992,6.36315c3.78718,3.44017 7.78109,6.31195 11.92534,9.30503c0.53976,0.38982 8.25525,5.98471 8.58731,6.12675c1.70063,0.72745 3.63004,0.71282 5.44506,1.06923c3.27772,0.60632 6.54906,1.24827 9.83317,1.81898c1.23904,0.21532 2.48273,0.78166 3.72602,0.5924c0.24791,-0.03773 2.07728,-0.72245 4.10953,-1.5012c-8.97884,50.86962 -53.39876,89.51223 -106.84415,89.51223z" fill="#803d00" stroke="#000000" stroke-width="5" stroke-linecap="butt"/><path d="M368.5,855c0,13.80712 -14.7746,25 -33,25c-18.2254,0 -33,-11.19288 -33,-25c0,-13.80712 14.7746,-25 33,-25c18.2254,0 33,11.19288 33,25z" fill="url(#color-1)" stroke="#000000" stroke-width="5" stroke-linecap="butt"/><path d="M339.5,865.5c0,2.48528 -4.02944,4.5 -9,4.5c-4.97056,0 -9,-2.01472 -9,-4.5c0,-2.48528 4.02944,-4.5 9,-4.5c4.97056,0 9,2.01472 9,4.5z" fill="#ffffff" stroke="#000000" stroke-width="5" stroke-linecap="butt"/><path d="M416.5,797c0.6831,0 1.36135,0.01573 2.03416,0.04672c1.59642,1.46676 3.07832,3.07171 4.68356,4.52986c3.78718,3.44017 7.78109,6.31195 11.92534,9.30503c0.53976,0.38982 8.25525,5.98471 8.58731,6.12675c1.67486,0.71642 3.57162,0.7131 5.36248,1.05329c0.26798,1.28293 0.40715,2.59833 0.40715,3.93836c0,13.80712 -14.77461,25 -33,25c-18.22539,0 -33,-11.19288 -33,-25c0,-0.87185 0.05891,-1.73327 0.17388,-2.58211c2.68224,-0.39938 5.36154,-0.8197 8.03247,-1.28792c1.69061,-0.29637 3.59892,-0.06608 5.05652,-0.97239c1.67394,-1.04082 2.55194,-3.0052 3.79756,-4.53289c3.15786,-3.87294 6.19815,-7.85099 9.29467,-11.77324c0.86737,-1.09867 1.78616,-2.15864 2.6021,-3.29602c0.08905,-0.12414 0.17042,-0.25557 0.24667,-0.39181c1.24561,-0.10808 2.51231,-0.16362 3.79613,-0.16362z" data-paper-data="{&quot;index&quot;:null}" fill="url(#color-2)" stroke="#000000" stroke-width="5" stroke-linecap="butt"/><path d="M431.5,822c4.97057,0 9,2.01472 9,4.5c0,2.48528 -4.02943,4.5 -9,4.5c-4.97057,0 -9,-2.01472 -9,-4.5c0,-2.48528 4.02943,-4.5 9,-4.5z" data-paper-data="{&quot;index&quot;:null}" fill="#ffffff" stroke="#000000" stroke-width="5" stroke-linecap="butt"/><path d="M365.5,893h17" fill="none" stroke="#000000" stroke-width="5" stroke-linecap="round"/><path d="M284.5,825.5c-1.48852,0 -2.09076,-0.88627 -2.33443,-1.60343c-0.10696,-0.27831 -0.16557,-0.58059 -0.16557,-0.89657c0,-0.15674 0.01442,-0.31011 0.04202,-0.45886c-0.38132,-1.03961 -0.9985,-2.0408 -1.00974,-3.14068c-0.01865,-1.82608 -0.65811,-4.62064 0.96774,-5.41056c0.00061,-0.15455 0.01524,-0.30579 0.0427,-0.45253c-0.02771,-0.16489 -0.04272,-0.34362 -0.04272,-0.53737c0,-2.5 2.5,-2.5 2.5,-2.5c4.09296,0.03886 8.01567,1.16973 11.95416,0.93722c-0.28614,-0.40657 -0.45416,-0.90227 -0.45416,-1.43722c0,-0.69035 0.27983,-1.31536 0.73224,-1.76777l2,-2l0.0614,0.0614c0.12354,-0.14571 0.25383,-0.28609 0.39204,-0.42026c0.85587,-0.83083 2.16314,-1.12918 3.46806,-1.35946c1.1817,-1.21767 2.54487,-2.16228 4.2613,-3.44727c0.02821,-0.02112 0.05614,-0.0429 0.08381,-0.06529c0.00038,-0.00045 0.00078,-0.0009 0.00116,-0.00135v-3c0,-1.38071 1.11929,-2.5 2.5,-2.5c1.38071,0 2.5,1.11929 2.5,2.5v0.7133c1.55548,0.26197 3.0653,0.9018 3.73607,2.16867c2.74028,5.17548 -2.81282,6.61218 -5.4455,7.48974c-0.34256,0.11419 -0.75639,0.07705 -1.13891,0.09006c-0.43889,0.46464 -0.86786,0.93636 -1.24032,1.44141c-0.03346,0.49623 -0.02963,1.01534 -0.28471,1.41116c-0.15348,0.23817 -0.31883,0.47033 -0.49484,0.69516c-0.0775,1.11109 0.11685,2.32275 -0.16406,3.39096c-1.12764,4.28787 -2.14573,6.88713 -7.64736,4.80373c-0.90972,-0.3445 -0.49172,-1.93171 -1.0667,-2.71635c-0.25219,-0.34416 0.2351,0.91494 0.01411,1.27993c-1.07585,1.77688 -2.57684,3.46826 -4.45344,4.35886c-1.58794,0.75361 -3.44593,1.7557 -5.12567,1.23806c-0.48262,-0.14873 -0.86212,-0.44929 -1.18797,-0.82984l-0.94088,0.94088c-0.34518,0.54135 -0.96104,1.02428 -2.05982,1.02428zM302.14698,815.42316c-0.2792,0.10242 -0.56385,0.19853 -0.85304,0.28847c0.33257,0.54886 0.58736,0.79261 0.74428,0.26026c0.05325,-0.18066 0.08801,-0.36376 0.10876,-0.54873z" fill="#800000" stroke="none" stroke-width="0.5" stroke-linecap="butt"/><path d="M359,815c0,-0.68834 0.18952,-1.18714 0.4642,-1.54862c-0.29225,-0.40919 -0.4642,-0.91021 -0.4642,-1.45138c0,-1.38071 1.11929,-2.5 2.5,-2.5h4v0.36844l0.95671,-0.17814c0.58292,0.81895 1.55829,1.55404 2.33386,2.33182c2.0693,1.0177 4.16622,2.91823 5.2944,4.04452c1.30917,1.30697 3.91503,2.08347 3.91503,3.93336c0,0.11788 -0.90082,1.02803 -1.98638,2.08336c-0.11075,2.79141 -1.60507,4.18209 -3.74636,4.52053l-0.37732,1.13198c-0.31417,1.02156 -1.26534,1.76412 -2.38994,1.76412c-0.88153,0 -1.6565,-0.45625 -2.10163,-1.14551l-1.97849,-2.96774l0.06891,-0.04594c-0.138,-0.19741 -0.26583,-0.40236 -0.38151,-0.61635c-0.09841,-0.18204 -0.17318,-0.40372 -0.22638,-0.6565c-1.70639,-1.53166 -3.25948,-3.45554 -4.50752,-4.75363l0.00261,-0.60633l-0.2477,0.08257l-0.83647,-2.50942c-0.17845,-0.32978 -0.29182,-0.74878 -0.29182,-1.28115zM369.81075,820.99997c0.06186,-0.06799 0.12464,-0.13479 0.18862,-0.20007c-0.13374,-0.34174 -0.22436,-0.76103 -0.38133,-0.56382c-0.17035,0.21403 0.03198,0.48575 0.19271,0.7639z" fill="#800000" stroke="none" stroke-width="0.5" stroke-linecap="butt"/><path d="M406.5,805.5c-2.5,0 -2.5,-2.5 -2.5,-2.5l1.41534,-3.61959c-0.26245,-0.39556 -0.41534,-0.87013 -0.41534,-1.38041c0,-0.69035 0.27983,-1.31536 0.73224,-1.76777l2,-2c1.1002,-1.1002 4.52246,-4.73223 5.76776,-4.73223c0.69849,0 2.09762,1.15769 3.38072,2.36386c2.09117,0.83102 3.95536,2.94797 5.38705,4.36837l2,2c0.45241,0.45241 0.73224,1.07741 0.73224,1.76777c0,0.56727 -0.18894,1.09041 -0.50731,1.50992c0.09344,0.14698 0.17816,0.2787 0.2531,0.3917l0.01538,0.34465l0.11054,-0.03684l0.98154,2.94464c0.09499,0.2642 0.14675,0.54902 0.14675,0.84593c0,1.38071 -1.11929,2.5 -2.5,2.5c-0.52533,0 -1.0128,-0.16203 -1.41519,-0.43884l-1.95853,-1.30568c-0.78945,0.62185 -1.3727,2.07515 -2.20067,1.67764c-0.53824,-0.25842 -0.93854,-0.69477 -1.25318,-1.22453c-0.34967,0.18601 -0.74874,0.29141 -1.17244,0.29141c-1.18975,0 -2.1854,-0.8311 -2.43804,-1.94439l-0.66818,-2.67273l-1.58832,3.59839c-0.83616,-1.42992 -1.26785,-3.19218 -2.50849,-4.28976c-0.38723,-0.34258 -0.67093,0.78679 -1.0064,1.1802l1.70943,-0.37171c0,0 0,2.5 -2.5,2.5z" fill="#800000" stroke="none" stroke-width="0.5" stroke-linecap="butt"/><path d="M462.99046,823.45191c-0.15859,0.03155 -0.32259,0.04809 -0.49045,0.04809c-0.55647,0 -1.07046,-0.1818 -1.48584,-0.48926c-0.78368,-0.24323 -1.43579,-0.54673 -1.82849,-0.88412c-1.42636,-1.22546 -3.79003,-2.94439 -3.11879,-4.70101c0.9958,-2.606 2.18853,-3.58675 3.40345,-3.6975l3.02967,-1.22812c0.9772,0.10335 2.08946,-0.12514 3.07056,-0.03137c0.0539,-0.0788 0.10778,-0.1576 0.16168,-0.2364l0.48941,-0.14977l-0.1084,-0.16259l2.97156,-1.98104c0.40239,-0.2768 0.88986,-0.43884 1.41519,-0.43884c1.38071,0 2.5,1.11929 2.5,2.5c0,0.52532 -0.16203,1.0128 -0.43883,1.41519l-0.56387,0.84581c0.75668,0.61383 1.42237,1.63126 1.93582,3.16462c0.53559,1.59947 -0.51099,3.40133 -1.30649,4.88871c-0.62525,1.16903 -1.87486,1.87486 -2.8123,2.81229l-0.5849,0.06166l0.06114,0.18343l-2.94464,0.98154c-0.2642,0.09498 -0.54902,0.14675 -0.84593,0.14675c-1.38071,0 -2.5,-1.11929 -2.5,-2.5c0,-0.18476 0.02004,-0.36485 0.05807,-0.53819c-0.02256,-0.00325 -0.0451,-0.00655 -0.06762,-0.0099zM469.10875,818.75509c0.00069,0.00687 0.00137,0.01373 0.00205,0.02061c0.22841,-0.28456 0.37349,-0.46964 0.21197,-0.28199c-0.0729,0.08469 -0.14404,0.1721 -0.21403,0.26138z" fill="#800000" stroke="none" stroke-width="0.5" stroke-linecap="butt"/><path d="M252.10727,822.72446l-0.00786,-0.27292c-0.00654,-0.16914 -0.01594,-0.33848 -0.0269,-0.50793c-0.42952,0.34794 -0.97667,0.55639 -1.57251,0.55639c-1.1246,0 -2.07576,-0.74256 -2.38994,-1.76412l-0.98177,-2.94531c-0.28812,-1.6362 -1.6618,-3.45112 -0.86436,-4.9086c1.5342,-2.80407 5.77671,-2.35862 8.23607,-2.38197c0,0 2.5,0 2.5,2.5c0,0.31321 -0.03924,0.58718 -0.10789,0.82682c0.41317,0.5145 0.76634,1.0665 1.04101,1.5988c0.88132,1.708 -0.85307,3.74634 -1.02879,5.67395l1.65683,2.48524c0.27681,0.40239 0.43883,0.88987 0.43883,1.41519c0,1.38071 -1.11929,2.5 -2.5,2.5c-0.88153,0 -1.6565,-0.45626 -2.10163,-1.14551l-1.97849,-2.96774l1.10185,-0.73457z" fill="#800000" stroke="none" stroke-width="0.5" stroke-linecap="butt"/><path d="M369.38197,850.23607c-2.23607,-1.11803 -1.11803,-3.3541 -1.11803,-3.3541l0.86436,-0.0914c-0.86189,-2.60394 -2.79142,-4.89047 -3.122,-7.61335c-0.16566,-1.36444 0.748,-2.64519 1.122,-3.96779c0,0 0.79057,-2.37171 3.16228,-1.58114c2.37171,0.79057 1.58114,3.16228 1.58114,3.16228c-1.36625,3.16231 0.93046,5.23026 2,8.41886l-1.13564,3.9086c0,0 -1.11803,2.23607 -3.3541,1.11803z" fill="#800000" stroke="none" stroke-width="0.5" stroke-linecap="butt"/><path d="M298.38197,838.23607c-2.23607,-1.11803 -1.11803,-3.3541 -1.11803,-3.3541l0.86436,-1.67254c0.66667,-2 1.33333,-4 2,-6c0,0 0.79057,-2.37171 3.16228,-1.58114c2.37171,0.79057 1.58114,3.16228 1.58114,3.16228c-0.66667,2 -1.33333,4 -2,6l-1.13564,2.32746c0,0 -1.11803,2.23607 -3.3541,1.11803z" fill="#800000" stroke="none" stroke-width="0.5" stroke-linecap="butt"/><path d="M274.5,851.5c-2.5,0 -2.5,-2.5 -2.5,-2.5l0.12829,-0.20943c-1.681,-5.04299 -3.54732,-9.21016 -7.39606,-13.0228c0,0 -1.76777,-1.76777 0,-3.53553c1.76777,-1.76777 3.53553,0 3.53553,0c4.36457,4.39925 6.67253,9.18296 8.60394,14.9772l0.12829,1.79057c0,0 0,2.5 -2.5,2.5z" fill="#800000" stroke="none" stroke-width="0.5" stroke-linecap="butt"/><path d="M411.70943,832.37171c-2.37171,-0.79057 -1.58114,-3.16228 -1.58114,-3.16228l0.93859,-1.63505c-2.24532,-1.67063 -2.89361,-1.64133 -3.06688,-5.57438c-0.05222,-1.18537 0.86822,-2.23131 1.03324,-3.4063c0.42376,-3.01724 0.42438,-6.09499 1.01531,-9.08399c0,0 0.49029,-2.45145 2.94174,-1.96116c2.45145,0.49029 1.96116,2.94174 1.96116,2.94174c-0.59354,2.93057 -0.54962,5.95776 -0.98469,8.91601c-0.13425,0.91285 -0.89366,1.67393 -0.96676,2.5937c-0.11374,1.43103 2.54348,3.96275 2.93312,4.42562l-1.06141,4.36495c0,0 -0.79057,2.37171 -3.16228,1.58114z" fill="#800000" stroke="none" stroke-width="0.5" stroke-linecap="butt"/><path d="M437.73223,854.76777c-1.76777,-1.76777 0,-3.53553 0,-3.53553l1.64114,-1.54656c0.36617,-1.04915 0.383,-2.29725 1.09852,-3.14745c1.23341,-1.46557 3.01874,-2.35882 4.52811,-3.53822c0,0 2,-1.5 3.5,0.5c1.5,2 -0.5,3.5 -0.5,3.5c-1.1573,0.82059 -2.5704,1.36632 -3.47189,2.46178c-0.63366,0.76999 -0.60099,1.9017 -0.90148,2.85255l-2.35886,2.45344c0,0 -1.76777,1.76777 -3.53553,0z" fill="#800000" stroke="none" stroke-width="0.5" stroke-linecap="butt"/><path d="M267.61803,810.23607c-2.23607,1.11803 -3.3541,-1.11803 -3.3541,-1.11803l-1.26393,-3.11803c0.01076,-1.13349 -0.33924,-2.32953 0.03228,-3.40046c0.63422,-1.82814 1.03746,-4.48488 2.89334,-5.03267c1.70467,-0.50315 3.18573,1.66014 4.50774,2.84815c0.76009,0.68305 1.41835,1.77307 1.98456,2.96735l1.84986,1.84986l-0.76976,0.76976c0.37027,1.00172 0.6801,1.92319 0.93534,2.58298l-2.6217,-0.55246l-0.69841,1.04761l-2.14054,-1.42703c0.12984,0.75338 0.03998,1.88564 -1.35468,2.58297z" fill="#800000" stroke="none" stroke-width="0.5" stroke-linecap="butt"/><path d="M272.29057,825.37171c-2.37171,0.79057 -3.16228,-1.58114 -3.16228,-1.58114l-1,-3c0,0 -0.79057,-2.37171 1.58114,-3.16228c2.37171,-0.79057 3.16228,1.58114 3.16228,1.58114l1,3c0,0 0.79057,2.37171 -1.58114,3.16228z" fill="#800000" stroke="none" stroke-width="0.5" stroke-linecap="butt"/></g></g></svg>