<svg version="1.1" xmlns="http://www.w3.org/2000/svg" xmlns:xlink="http://www.w3.org/1999/xlink" width="279.03534" height="365.96546" viewBox="0,0,279.03534,365.96546"><g transform="translate(-224.12979,-613.10347)"><g data-paper-data="{&quot;isPaintingLayer&quot;:true}" fill-rule="nonzero" stroke="none" stroke-width="0" stroke-linecap="butt" stroke-linejoin="miter" stroke-miterlimit="10" stroke-dasharray="" stroke-dashoffset="0" style="mix-blend-mode: normal"><path d="M225.5383,732.97137c10.85226,-76.27557 81.48334,-129.31164 157.75891,-118.45938c76.27558,10.85226 129.31165,81.48334 118.45939,157.75891c-2.02541,14.23567 -6.13306,27.66185 -11.97105,40.01428c-0.98102,-0.61371 -8.43896,-5.27924 -8.47614,-5.29828c-1.91219,-0.97904 -3.77514,-2.6204 -5.92199,-2.54268c-2.63091,0.09525 -4.42162,2.87511 -6.76181,4.08104c-9.60275,4.94841 -20.14544,11.08657 -27.36964,19.27841c-1.03844,-2.27635 -3.06677,-3.99973 -4.96612,-5.62841c-3.79562,-3.25472 -7.59618,-6.5037 -11.3944,-9.7554c-12.38578,-10.60358 -25.32028,-20.60598 -38.02187,-30.82911c-3.30359,-2.65896 -6.95673,-5.57757 -10.8457,-7.37965c-1.67966,-0.77832 -3.40729,-1.93615 -5.25358,-1.80098c-0.34542,0.02529 -7.91535,5.18833 -7.98889,5.23796c-4.30476,2.91704 -8.51715,6.25747 -11.89646,10.26847c-1.78945,2.12396 -2.85794,4.76296 -4.27495,7.15156c-0.34953,0.58919 -2.00394,2.46733 -2.59075,4.28884c-0.78142,-1.05621 -1.80429,-1.95086 -2.64839,-2.96511c-3.24339,-3.8972 -6.44904,-7.74685 -9.92311,-11.44169c-5.14055,-5.46722 -10.16529,-12.49511 -16.40748,-16.70938c-1.8619,-1.25702 -3.46174,-3.56519 -5.70817,-3.58297c-1.78172,-0.0141 -2.75758,2.26372 -4.03503,3.50583c-2.38342,2.31749 -4.46145,4.92962 -6.68847,7.39778c-0.12381,0.20183 -5.24602,8.54338 -5.39611,8.82149c-0.68025,1.26049 -1.14432,2.62835 -1.79952,3.90204c-0.18277,0.35529 -0.43374,1.26107 -0.70602,0.96866c-0.45245,-0.48591 0.01043,-1.3607 -0.23388,-1.97806c-0.61424,-1.55214 -1.53414,-2.96517 -2.30771,-4.44437c-2.98803,-5.71368 -6.03851,-11.37802 -8.84381,-17.18412c-1.96031,-4.05724 -2.59093,-6.68673 -6.83535,-9.19975c-3.50931,-2.07777 -10.80541,-0.16955 -13.82581,1.58352c-2.50994,1.45679 -3.86401,4.33213 -5.73077,6.55412c-1.02726,1.22273 -2.13276,2.46803 -2.99849,3.75499c-0.43782,-2.26404 -0.91001,-4.52089 -1.45087,-6.77346c-0.7696,-3.20521 -1.47377,-7.51034 -3.57403,-10.22853c-1.44786,-1.87385 -2.98265,-4.20509 -5.28875,-4.74317c-3.09551,-0.72228 -5.74677,4.73192 -6.76088,6.34847c-2.61209,4.16383 -5.31564,8.27251 -8.17543,12.2683c-0.94454,-10.52537 -0.69987,-21.32497 0.85311,-32.24016z" fill="#000000"/><path d="M388.38335,973.9696c-61.15831,16.94382 -124.09254,-9.59358 -155.87718,-60.97273c1.23213,-4.99417 2.25212,-10.04798 3.11664,-15.11575c0.28374,-1.66324 0.49389,-3.33823 0.72833,-5.00914c0.16832,-1.19966 0.39737,-2.39382 0.47992,-3.60242c0.02086,-0.30542 -0.46098,-1.00384 -0.17226,-0.90209c1.2858,0.4531 5.14747,4.06786 5.6619,4.63923c4.13383,4.59139 7.41102,10.17848 10.87027,15.27182l0.3112,0.14738l-0.07455,0.08629l2.69903,2.33177c0.613,0.54539 1.48166,0.77817 2.33118,0.54281c1.33059,-0.36864 2.11041,-1.74614 1.74177,-3.07673l-1.06797,-3.8548c-0.1643,-1.42462 -1.2632,-2.68434 -1.24442,-4.11828c0.01878,-1.43394 0.91822,-2.71735 1.35183,-4.08428c1.76726,-5.57112 2.05439,-8.54713 7.78607,-11.12058c0.59198,-0.26579 1.20132,-0.72952 1.84236,-0.62881c3.13128,0.49193 4.68101,2.52634 6.93362,4.48695c4.90799,4.27179 10.04697,8.24703 15.11596,12.32397c0.83796,0.67396 7.2522,6.152 8.47609,5.95266c5.58037,-0.90892 4.5269,-6.56687 4.88116,-9.97719c0.33267,-3.20243 0.87512,-6.37959 1.30595,-9.5703c0.04291,-0.12655 3.01589,-8.88295 3.04685,-9.0201c0.1485,-0.65787 -0.70546,-1.8985 -0.04259,-2.02281c1.10148,-0.20657 1.97673,1.07214 3.02701,1.46311c2.39003,0.88969 4.85271,1.59183 7.19641,2.59724c7.60973,3.26447 15.31616,6.3343 22.71787,10.04922c2.9632,1.48723 5.79544,3.27114 8.89038,4.46015c1.7323,0.66552 3.84017,2.61414 5.35097,1.53654c0.44294,-0.31593 1.56182,-9.788 1.70327,-10.91156c0.96781,-7.68743 2.88741,-13.74912 7.1119,-20.37685c0.90215,-1.42195 1.88591,-2.79529 2.70645,-4.26584c0.36978,-0.66272 0.17992,-1.75863 0.85189,-2.11133c0.80253,-0.42123 1.80832,0.13483 2.70823,0.24273c1.58873,0.19048 3.17026,0.43688 4.75582,0.65219c5.66568,0.76939 11.2266,2.7321 16.73884,4.23774c20.58261,5.62204 41.29089,10.97147 61.47919,17.91427c6.01012,-8.4893 10.0667,-18.30834 16.62007,-26.36095c1.67553,-2.05885 3.66127,-3.90276 5.01432,-6.18651c0.53658,-0.90567 0.28422,-2.44334 1.22806,-2.9095c1.07146,-0.5292 2.36066,0.37383 3.5421,0.55351c1.06244,0.16159 8.76359,1.30363 9.77273,1.45341c0.12337,0.01831 0.24672,0.03665 0.37008,0.05501c-3.81342,57.5097 -43.29916,108.94124 -101.98675,125.20055z" fill="#000000"/><path d="M343.47663,720.45924c-1.16691,8.20168 -21.83756,12.04407 -46.1692,8.58224c-24.33164,-3.46183 -43.11036,-12.91697 -41.94345,-21.11865c1.16691,-8.20168 21.83757,-12.04407 46.1692,-8.58224c24.33164,3.46183 43.11035,12.91697 41.94345,21.11865z" fill="#ff0000"/></g></g></svg>