<svg version="1.1" xmlns="http://www.w3.org/2000/svg" xmlns:xlink="http://www.w3.org/1999/xlink" width="546.5" height="604" viewBox="0,0,546.5,604"><g transform="translate(-105.5,-498)"><g data-paper-data="{&quot;isPaintingLayer&quot;:true}" fill-rule="nonzero" stroke-linejoin="miter" stroke-miterlimit="10" stroke-dasharray="" stroke-dashoffset="0" style="mix-blend-mode: normal"><path d="M497.5,816l105,-57l-97,-30" fill="none" stroke="#000000" stroke-width="5" stroke-linecap="round"/><path d="M511.2218,724.85332c6.17212,9.49153 3.48121,22.1894 -6.01031,28.36152c-9.49153,6.17211 -31.84273,-28.19973 -22.3512,-34.37185c9.49153,-6.17211 22.1894,-3.4812 28.36152,6.01033z" fill="#000000" stroke="none" stroke-width="0" stroke-linecap="butt"/><path d="M210.5,800c0,-82.56657 66.93343,-149.5 149.5,-149.5c82.56657,0 149.5,66.93343 149.5,149.5c0,82.56657 -66.93343,149.5 -149.5,149.5c-82.56657,0 -149.5,-66.93343 -149.5,-149.5z" fill="#ffe100" stroke="#000000" stroke-width="5" stroke-linecap="butt"/><path d="M344.5,824.5c0,35.62236 -23.2812,64.5 -52,64.5c-28.7188,0 -52,-28.87764 -52,-64.5c0,-35.62236 23.2812,-64.5 52,-64.5c28.7188,0 52,28.87764 52,64.5z" fill="#ffffff" stroke="#000000" stroke-width="5" stroke-linecap="butt"/><path d="M489.5,775c0,25.95739 -25.74363,47 -57.5,47c-31.75637,0 -57.5,-21.04261 -57.5,-47c0,-25.95739 25.74363,-47 57.5,-47c31.75637,0 57.5,21.04261 57.5,47z" fill="#ffffff" stroke="#000000" stroke-width="5" stroke-linecap="butt"/><path d="M248.5,840c0,-17.67311 14.32689,-32 32,-32c17.67311,0 32,14.32689 32,32c0,17.67311 -14.32689,32 -32,32c-17.67311,0 -32,-14.32689 -32,-32z" fill="#ffffff" stroke="#000000" stroke-width="12.5" stroke-linecap="butt"/><path d="M436.5,764c0,-5.52285 4.47715,-10 10,-10c5.52285,0 10,4.47715 10,10c0,5.52285 -4.47715,10 -10,10c-5.52285,0 -10,-4.47715 -10,-10z" fill="#000000" stroke="#000000" stroke-width="12.5" stroke-linecap="butt"/><path d="M329.5,977l138,-13l-43,-125l-68,-2z" fill="#ad0000" stroke="#000000" stroke-width="5" stroke-linecap="round"/><path d="M349.5,883l18,-16l19,23l19,-24l17,20l12,-13l-11,-33l-68,-2z" fill="#ffffff" stroke="#000000" stroke-width="5" stroke-linecap="round"/><path d="M409.3927,944.34101c0.75651,9.35831 -13.35678,18.13519 -31.52292,19.60371c-18.16613,1.46852 -33.50597,-4.92742 -34.26248,-14.28573c-0.75651,-9.35831 13.35678,-18.13519 31.52292,-19.60371c18.16613,-1.46852 33.50597,4.92742 34.26248,14.28573z" fill="#ad6d6d" stroke="none" stroke-width="0" stroke-linecap="butt"/><path d="M317.17605,723.15707c0,0 14.30478,53.37015 37.16718,47.61933c22.8624,-5.75082 5.47051,-58.34443 5.47051,-58.34443c0,0 65.34238,-10.3071 67.48948,-41.06301c2.1471,-30.75591 -63.39305,-17.61595 -63.39305,-17.61595" fill="#ffe100" stroke="#000000" stroke-width="5" stroke-linecap="round"/><path d="M235.5,853l-95,-134l95,-6" fill="none" stroke="#000000" stroke-width="5" stroke-linecap="round"/><path d="M328.5,933l-108,-15l112,99l-42,47" fill="none" stroke="#000000" stroke-width="5" stroke-linecap="round"/><path d="M460.5,894l171,162l18,-45" fill="none" stroke="#000000" stroke-width="5" stroke-linecap="round"/><path d="M223.13121,707.1718c6.50474,-9.26674 19.29004,-11.50579 28.55678,-5.00105c9.26674,6.50473 -14.28899,40.06256 -23.55573,33.55783c-9.26674,-6.50473 -11.50579,-19.29003 -5.00105,-28.55678z" fill="#000000" stroke="none" stroke-width="0" stroke-linecap="butt"/><path d="M105.5,541l99,93l73,-136l61,115l37,-51l100,74l92,-50l47,445l-265,71l-237,-92z" fill-opacity="0.50196" fill="#ff3300" stroke="#000000" stroke-width="0" stroke-linecap="round"/></g></g></svg>