<svg version="1.1" xmlns="http://www.w3.org/2000/svg" xmlns:xlink="http://www.w3.org/1999/xlink" width="613.08053" height="289.60716" viewBox="0,0,613.08053,289.60716"><g transform="translate(-53.45973,-655.19642)"><g data-paper-data="{&quot;isPaintingLayer&quot;:true}" fill-rule="nonzero" stroke="none" stroke-width="1" stroke-linecap="butt" stroke-linejoin="miter" stroke-miterlimit="10" stroke-dasharray="" stroke-dashoffset="0" style="mix-blend-mode: normal"><g><path d="M619.72879,871.96911c-7.2207,1.95174 -11.81433,2.59761 -13.52266,3.77432c-3.41666,2.35341 -11.42697,5.35269 -21.53296,6.77359c-12.86218,1.80842 -25.45124,-1.10412 -36.59021,-7.03009l-7.34982,1.03339c-2.75618,0.38752 -4.59364,0.64587 -7.47894,0.11503c-9.58951,5.09434 -18.77678,6.38607 -24.28914,7.16111l-1.83745,0.25835c-12.73306,2.72678 -25.9826,1.78013 -37.78205,-2.17995c-5.25412,2.61176 -9.71864,4.17598 -15.231,4.95102l-33.86378,5.69777c-15.61836,2.19594 -30.17399,-1.37662 -42.61906,-9.92849c-4.59364,0.64587 -9.31639,0.37337 -13.12042,-0.0283c-4.60851,7.20356 -11.1836,13.7471 -19.72526,19.63063c-16.29372,10.71953 -35.45787,14.35052 -54.86538,9.58711c-1.96657,-0.66001 -4.85188,-1.19085 -6.81845,-1.85087l-20.74336,5.72606l-6.43109,0.90421c-2.62706,1.30588 -4.20627,3.40095 -5.9146,4.57765c-12.87705,8.36611 -25.73923,10.17454 -31.25159,10.94958l-4.59364,0.64587c-15.61836,2.19594 -31.88233,-0.19991 -44.98787,-6.7859c-3.54579,1.43505 -8.0103,2.99928 -11.68521,3.51597c-7.49382,6.67272 -17.08333,11.76706 -27.97893,14.2355l-3.67491,0.51669c-30.31799,4.26272 -58.35166,-15.20859 -65.36885,-45.12694l-0.12912,-0.91836c-0.64561,-4.5918 -2.98467,-14.56458 -3.6154,-25.71406c-0.77473,-5.51016 -1.01809,-13.90456 -1.27634,-15.74128c-1.03297,-7.34687 -0.22849,-14.9521 1.49472,-22.6865c-2.87042,-7.08853 -2.98467,-14.56458 -3.09892,-22.04063l-0.38736,-2.75508c0.01488,-6.55769 0.04463,-19.67307 4.66801,-33.43432c8.84454,-23.71988 28.95716,-40.59543 53.76279,-44.08311c7.62294,-5.75436 15.63324,-8.75363 24.82051,-10.04537l2.75618,-0.38752c18.50366,-1.66511 36.33197,5.19338 48.50391,18.46622c7.23557,-8.50943 16.69596,-14.52214 27.46244,-17.90894c21.66208,-5.85524 39.9075,-9.35706 55.91323,-8.79792c7.23557,-8.50943 17.48557,-15.56967 28.38117,-18.03811l23.37042,-7.03194l7.34982,-1.03339c13.7809,-1.9376 28.33654,1.63496 40.65248,9.26848l1.83746,-0.25835l34.7825,-5.82694c14.69963,-2.06677 27.43269,-4.79355 30.18887,-5.18107l4.59364,-0.64587c12.86218,-1.80842 27.28869,0.84577 38.55678,7.6901c9.07302,-8.76778 20.5,-14.12047 33.36217,-15.92889l11.94345,-1.67925c8.41254,-6.80189 18.00205,-11.89623 29.02677,-13.44631l29.27014,-5.05191l0.91873,-0.12917c31.23672,-4.39189 60.57648,17.70533 65.88534,48.80038c2.06594,14.69375 -0.71999,28.19665 -8.3578,40.5087l3.74452,26.63243c9.55976,8.02104 15.83197,19.31384 18.5584,32.0417c6.22758,30.96588 -13.91479,60.95681 -45.68287,68.23295z" fill="#ffffff"/><path d="M613.24296,839.16651c-11.81433,2.59761 -19.03503,4.54936 -20.74336,5.72606l-0.78961,1.04754c-2.62706,1.30588 -6.04372,3.65929 -10.63736,4.30515c-5.51236,0.77504 -12.20169,-0.15747 -17.44094,-4.1034c-2.0957,-1.57837 -4.19139,-3.15674 -5.36837,-4.86429l-21.13072,2.97098c-3.67491,0.51669 -7.47894,0.11503 -10.49336,-1.33417c-0.78961,1.04753 -2.62706,1.30588 -3.41667,2.35341c-6.83333,4.70682 -13.26442,5.61104 -17.85805,6.2569l-4.59364,0.64587c-13.7809,1.9376 -25.45124,-1.10412 -33.96315,-8.33597c-3.94803,5.23767 -9.99175,8.89696 -16.42284,9.80117l-33.86378,5.69777c-11.94345,1.67925 -24.25939,-5.95426 -27.6463,-16.71623c-4.20627,3.40095 -8.54166,5.88353 -14.05402,6.65857c-5.51236,0.77504 -11.28297,-0.28664 -16.26397,-2.39586c-1.04785,-0.78918 -2.09569,-1.57837 -3.01442,-1.4492c-2.49794,2.22424 -6.17285,2.74093 -9.84775,3.25762l-2.75618,0.38752c-2.12545,11.53701 -7.52357,19.7881 -16.98396,25.8008c-4.33539,2.48259 -9.58951,5.09434 -14.18315,5.74021c-4.59364,0.64587 -10.23512,0.50255 -15.087,-0.68831c-4.85188,-1.19085 -8.91415,-3.42924 -12.0577,-5.7968c-1.70833,1.1767 -3.54579,1.43505 -5.25412,2.61176l-26.1266,7.41946l-3.67491,0.51669c-2.75618,0.38752 -4.59364,0.64586 -7.47894,0.11502c-3.15842,4.19013 -7.49381,6.67272 -10.91048,9.02613c-6.83333,4.70682 -13.26442,5.61104 -17.85805,6.2569l-4.59364,0.64587c-16.53708,2.32512 -30.43224,-3.21334 -39.20239,-12.2819c-6.70421,5.62519 -15.50411,9.672 -23.77266,10.83456l-5.51236,0.77504c0.12912,0.91836 -0.78961,1.04753 -0.66049,1.96589c-3.94803,5.23767 -9.86263,9.81532 -16.29372,10.71953l-1.83746,0.25835c-12.86218,1.80842 -25.30724,-6.74345 -28.16279,-20.38967l-0.12912,-0.91836c-0.64561,-4.5918 -2.72643,-12.72786 -3.09892,-22.04063c-0.90385,-6.42852 -1.40546,-16.65964 -1.40546,-16.65964c-0.90385,-6.42852 1.0776,-12.32619 4.1069,-17.43469c-4.70788,-6.83018 -6.7887,-14.96625 -6.24246,-24.40819l-0.25824,-1.83672c0.144,-5.63933 -0.09937,-14.03374 2.41344,-22.81567c4.75251,-12.84289 15.79211,-20.95065 29.57301,-22.88825l6.43109,-0.90421c4.07715,-4.3193 9.20215,-7.84942 15.63323,-8.75363c13.7809,-1.9376 26.48421,8.451 28.42103,22.22639l1.42034,10.10195c4.33539,-2.48259 9.71864,-4.17598 15.231,-4.95102c2.75618,-0.38752 4.59364,-0.64587 7.47894,-0.11503c3.0293,-5.10849 8.1543,-8.63861 13.53754,-10.332c0.66048,-1.96589 1.45009,-3.01343 2.11057,-4.97932c2.90018,-6.02685 8.81478,-10.6045 15.11675,-12.42707c5.38324,-1.6934 16.27885,-4.16184 29.14102,-5.97026c14.69963,-2.06677 26.90133,-1.90931 36.7342,1.39076c1.33584,-10.48947 7.65269,-18.86973 18.41917,-22.25653l23.37042,-7.03194l3.67491,-0.51669c7.34982,-1.03339 14.16827,0.81748 19.53663,5.68177c2.0957,1.57837 5.36836,4.86429 6.67445,7.4902l1.30609,2.62591c4.20627,-3.40095 8.54166,-5.88353 14.05402,-6.65857l35.70123,-5.95611c17.45581,-2.45429 32.94505,-5.5686 32.81593,-6.48696l1.83746,-0.25835c6.43109,-0.90421 14.16827,0.81748 19.40751,4.76341c4.19139,3.15674 7.59318,7.36103 9.28664,12.74201l1.83746,-0.25835c2.75618,-0.38752 4.59364,-0.64587 7.47894,-0.11503c3.0293,-5.10849 8.1543,-8.63861 13.53754,-10.33201c3.68979,-7.07438 11.1836,-13.7471 20.37087,-15.03883l23.8869,-3.3585c3.81891,-6.15602 9.73351,-10.73367 18.00205,-11.89623l29.39927,-4.13354c13.7809,-1.9376 26.35509,7.53264 29.21064,21.17886c1.42034,10.10195 -2.80081,20.06059 -10.55287,24.89659l7.87641,56.01993c7.8663,2.64005 14.54076,10.13025 16.7507,19.18467c2.85555,13.64622 -6.4906,27.13497 -20.14238,29.99093z" fill="#f9a83a"/><g fill="#ffffff"><path d="M128.02288,826.46772c11.28297,0.28664 34.76763,0.73075 37.99567,23.68974c0.90385,6.42852 -1.73809,14.29208 -6.60484,19.65892c-5.65636,6.41437 -13.53753,10.33201 -22.06432,9.65785c-6.56021,-0.01415 -12.45994,-1.99419 -16.52221,-4.23257l1.42034,10.10195c0.38736,2.75508 -1.98146,5.89768 -4.73764,6.2852c-2.75618,0.38752 -5.89972,-1.98004 -6.28709,-4.73512c-0.12912,-0.91836 -2.20994,-9.05442 -2.84067,-20.20391c0.01488,-6.55769 -1.53458,-17.578 -1.53458,-17.578c-0.38736,-2.75508 1.98145,-5.89768 4.73763,-6.2852c2.75618,-0.38752 5.89973,1.98004 6.28709,4.73512l0.25824,1.83672c0.38736,2.75508 1.9517,7.21771 3.38691,10.76197c2.35394,3.41509 8.25367,5.39513 10.22024,6.05514c1.83745,-0.25835 2.8853,0.53084 4.72275,0.2725c5.64148,0.14332 11.02472,-1.55008 14.18315,-5.74021c3.28754,-3.27177 4.60851,-7.20356 4.09203,-10.87699c-1.29122,-9.1836 -11.78458,-10.51777 -26.87157,-11.20608c-14.16827,-0.81748 -21.23009,-11.06275 -21.84595,-28.76993l-0.25824,-1.83672c-0.37249,-9.31277 -0.7301,-25.18323 17.11308,-24.88244c6.43109,-0.90421 12.58906,2.91254 17.8283,6.85848l-1.42034,-10.10195c-0.38736,-2.75508 1.98146,-5.89768 4.73764,-6.2852c2.75618,-0.38752 5.89972,1.98004 6.28709,4.73512c0.12912,0.91836 3.19829,36.07436 3.19829,36.07436c-0.53136,2.88425 -2.90018,6.02685 -5.78548,5.49601c-2.8853,-0.53084 -4.981,-2.10921 -5.23924,-3.94593l-0.51649,-3.67344c-1.30609,-2.62591 -1.69346,-5.38098 -4.0474,-8.79608c-2.61218,-5.25181 -6.67445,-7.49019 -8.77015,-9.06857c-2.0957,-1.57837 -4.06228,-2.23839 -5.89973,-1.98004c-5.51236,0.77504 -6.04373,3.65929 -6.33172,14.93795l0.25824,1.83672c-0.02975,13.11538 4.29077,17.19049 10.85098,17.20463M280.17395,789.15451c2.23969,-4.06096 3.56066,-7.99274 3.30242,-9.82946l-0.25824,-1.83672c-3.40179,-4.20428 -16.39309,-3.31421 -31.09272,-1.24744l3.6154,25.71407c5.38324,-1.6934 10.76648,-3.38679 14.18315,-5.74021l2.62706,-1.30588c0.91873,-0.12917 3.54578,-1.43505 4.33539,-2.48258c1.70833,-1.1767 2.49794,-2.22424 3.28754,-3.27177M319.30197,834.22486c2.8853,0.53084 5.11012,3.02757 1.69345,5.38099c-0.67536,8.52358 -3.9629,11.79535 -8.16917,15.1963c-5.125,3.53012 -9.97688,2.33926 -13.7809,1.9376c-4.85188,-1.19085 -8.25367,-5.39513 -9.43064,-7.10268c-2.48306,-4.33345 -4.95125,-15.22459 -5.33861,-17.97967c-2.85555,-13.64622 -5.46774,-18.89803 -7.69255,-21.39476c-1.17697,-1.70755 -3.14354,-2.36756 -4.981,-2.10921l-1.83746,0.25835c-4.33539,2.48259 -8.79991,4.04681 -14.18315,5.74021l4.51925,32.14259l8.13942,-2.08092c2.62706,-1.30588 6.68933,0.93251 7.0767,3.68759c1.30609,2.62591 -0.93361,6.68686 -3.68979,7.07438l-26.1266,7.41946c-2.62706,1.30588 -6.68934,-0.9325 -7.0767,-3.68758c-1.30609,-2.62591 0.93361,-6.68686 3.68979,-7.07438l7.22069,-1.95175l-4.51925,-32.14258l-2.75618,0.38752c-2.75618,0.38752 -5.89973,-1.98004 -6.28709,-4.73512c-0.38736,-2.75508 1.98146,-5.89768 4.73764,-6.2852l2.75618,-0.38752l-3.6154,-25.71407c-2.75618,0.38752 -5.38324,1.6934 -8.13942,2.08092c-2.62706,1.30588 -6.68933,-0.93251 -7.0767,-3.68759c-1.30609,-2.62591 0.93361,-6.68686 3.68979,-7.07438c12.60393,-3.64515 51.46359,-13.79139 62.84593,0.52899c4.57876,5.91182 3.77428,13.51705 -1.3656,23.60486c0,0 -2.36882,3.14259 -4.86675,5.36683c5.23924,3.94593 10.20536,12.61284 12.52955,29.14331c0.64561,4.5918 2.59731,11.8095 3.77428,13.51705c1.04785,0.78918 2.22482,2.49673 2.22482,2.49673c2.8853,0.53084 4.85188,1.19085 5.64149,0.14332c0.78961,-1.04753 2.62706,-1.30588 3.56066,-7.99274c0.53136,-2.88425 3.94803,-5.23767 6.83333,-4.70683M517.13115,788.61627c2.75618,-0.38752 5.77061,1.06168 6.02885,2.8984l1.29122,9.1836c-0.66048,1.96589 -0.67536,8.52358 -1.99633,12.45537c-1.45009,3.01343 -2.11058,4.97932 -3.68979,7.07438c-2.36882,3.1426 -4.86676,5.36684 -7.49382,6.67272c-3.41666,2.35341 -7.09157,2.8701 -10.76648,3.38679l-2.75618,0.38752c-20.21199,2.84181 -28.96727,-12.78445 -31.04809,-20.92051l-3.6154,-25.71406c-1.0181,-13.90457 2.41345,-22.81567 8.19893,-28.31168c7.49382,-6.67272 19.16414,-3.631 22.17857,-2.1818c3.01442,1.4492 5.89973,1.98004 7.99542,3.55841l-1.42034,-10.10196c-0.38736,-2.75508 1.98146,-5.89768 4.73764,-6.2852c2.75618,-0.38752 5.89972,1.98004 6.28709,4.73512l3.48628,24.79571c0.38736,2.75508 -0.27312,4.72097 -2.90018,6.02685c-2.75618,0.38752 -5.64148,-0.14332 -6.81845,-1.85087c-0.91873,0.12917 -6.67445,-7.49019 -14.41163,-9.21189c-6.68933,-0.93251 -10.49337,-1.33418 -12.9913,0.89006c-3.28754,3.27177 -4.22114,9.95864 -3.84866,19.27141l3.35716,23.87734c0.38736,2.75508 3.9034,14.43541 18.47391,11.45028l3.67491,-0.51669c3.67491,-0.51669 4.59364,-0.64587 6.30197,-1.82257c1.70833,-1.1767 3.41666,-2.35341 4.20627,-3.40094c1.57921,-2.09507 2.36882,-3.1426 3.0293,-5.10849c0.78961,-1.04753 1.19185,-4.85014 0.80448,-7.60522l-1.03297,-7.34688c-0.38736,-2.75508 1.98145,-5.89767 4.73763,-6.28519M613.24998,812.56251c0.38736,2.75508 -1.06272,5.7685 -3.56066,7.99274c-12.73306,2.72678 -23.62866,5.19522 -26.1266,7.41946c-3.54579,1.43505 -6.17285,2.74093 -8.26854,1.16256c-3.01442,-1.4492 -3.53091,-5.12263 -1.9517,-7.2177c2.23969,-4.06096 7.75206,-4.836 14.84363,-7.7061l-5.93959,-42.24454l-32.29944,10.16039l4.00277,28.46914l9.18727,-1.29173c2.75618,-0.38752 5.89972,1.98004 6.28709,4.73512c0.38736,2.75508 -1.98145,5.89768 -4.73763,6.2852l-30.44711,3.34436c-2.75618,0.38752 -5.89972,-1.98004 -6.28709,-4.73512c-0.38736,-2.75508 1.98145,-5.89768 4.73763,-6.2852l9.18727,-1.29173l-10.45884,-74.38712l-9.18727,1.29173c-2.75618,0.38752 -5.89972,-1.98004 -6.28709,-4.73511c-0.38736,-2.75508 1.98145,-5.89768 4.73763,-6.2852l29.39927,-4.13354c2.75618,-0.38752 5.89972,1.98004 6.28709,4.73512c0.38736,2.75508 -1.98145,5.89767 -4.73763,6.28519l-9.18727,1.29173l4.90662,34.89766l32.29944,-10.16039l-5.4231,-38.5711l-9.18727,1.29173c-2.75618,0.38752 -5.89973,-1.98004 -6.28709,-4.73511c-0.38736,-2.75508 1.98146,-5.89768 4.73764,-6.2852l29.27014,-5.05191c2.75618,-0.38752 5.89972,1.98004 6.28709,4.73512c0.38736,2.75508 -1.98145,5.89768 -4.73763,6.2852l-8.26854,1.16256c9.69899,62.31928 12.41054,81.60483 13.70176,90.78842c2.62706,-1.30588 5.38324,-1.6934 7.2207,-1.95174c2.75618,-0.38752 5.89972,1.98004 6.28709,4.73512"/><path d="M359.28385,792.07935l-16.20446,-28.62662l-1.78271,33.96516zM391.28042,799.75531c2.62706,-1.30588 5.64148,0.14332 6.81845,1.85087c1.30609,2.62591 -0.01488,6.55769 -2.64194,7.86357c-9.58951,5.09434 -19.0499,11.10705 -21.2896,15.168c-1.57921,2.09507 -5.125,3.53012 -8.13942,2.08092c-2.0957,-1.57837 -3.40179,-4.20428 -1.9517,-7.2177c2.36882,-3.1426 4.07715,-4.3193 8.28342,-7.72025l-7.44918,-13.00036l-25.07875,8.20865l0.24337,8.39441c3.67491,-0.51669 5.89973,1.98004 6.28709,4.73512c0.51649,3.67344 -1.98146,5.89768 -4.73764,6.2852l-27.69093,2.95684c-3.67491,0.51669 -5.89973,-1.98004 -6.28709,-4.73512c-0.51649,-3.67344 1.98146,-5.89768 4.73764,-6.2852l16.66621,-1.40676c0.94848,-13.24455 3.40656,-55.73329 3.82367,-66.09359c-7.2207,1.95174 -16.27885,4.16184 -16.27885,4.16184c-3.54579,1.43505 -6.68933,-0.93251 -7.0767,-3.68759c-1.43521,-3.54426 0.93361,-6.68686 3.68979,-7.07438l23.49954,-6.11358c1.83745,-0.25835 3.80403,0.40167 4.85188,1.19085c0.91873,-0.12917 2.09569,1.57837 2.22482,2.49673l28.23241,47.53879l9.80313,16.41545c5.125,-3.53012 7.75206,-4.836 9.46039,-6.0127"/><path d="M449.55236,734.43491c1.83745,-0.25835 3.80403,0.40167 4.06227,2.23839c2.0957,1.57837 2.22482,2.49673 2.48306,4.33345c0.11424,7.47605 1.92195,20.33308 1.92195,20.33308c0.25824,1.83672 -0.27312,4.72097 -1.98145,5.89768c-2.49794,2.22424 -5.38324,1.6934 -7.60806,-0.80334c-0.12912,-0.91836 -1.30609,-2.6259 -2.08082,-8.13606l-1.54946,-11.02032c-5.51236,0.77504 -13.65178,2.85596 -22.83905,4.14769l10.2006,72.5504l11.02472,-1.55008c2.75618,-0.38752 5.89972,1.98004 6.28709,4.73512c0.38736,2.75508 -1.98145,5.89768 -4.73763,6.2852l-33.86378,5.69777c-2.75618,0.38752 -5.89972,-1.98004 -6.28709,-4.73512c-0.38736,-2.75508 1.98145,-5.89767 4.73763,-6.28519l11.94345,-1.67925l-10.2006,-72.55041l-23.88691,3.3585c2.87042,7.08853 6.77383,21.52394 6.77383,21.52394c0.38736,2.75508 -1.06272,5.7685 -3.8189,6.15602c-2.62706,1.30588 -6.68934,-0.93251 -7.0767,-3.68759l-8.46728,-26.90492c-1.17697,-1.70755 -0.51649,-3.67344 0.27312,-4.72097c1.70833,-1.1767 2.49794,-2.22424 4.33539,-2.48258l35.70123,-5.95611c18.24542,-3.50182 34.65339,-6.7453 34.65339,-6.7453M224.83195,835.33268c2.75618,-0.38752 5.89973,1.98004 6.15797,3.81676l1.29122,9.1836c-0.66048,1.96589 -0.67536,8.52358 -1.99633,12.45537c-1.45009,3.01343 -2.11058,4.97932 -3.68979,7.07438c-2.36882,3.1426 -4.86676,5.36684 -7.49382,6.67272c-3.41666,2.35341 -7.09157,2.87011 -10.76648,3.3868l-2.75618,0.38752c-21.13072,2.97098 -29.886,-12.65528 -31.96682,-20.79134l-3.6154,-25.71406c-1.0181,-13.90457 2.41345,-22.81567 8.19893,-28.31168c8.54166,-5.88353 19.16414,-3.631 23.09729,-2.31097c2.8853,0.53084 5.89973,1.98004 7.99542,3.55841l-1.42034,-10.10196c-0.38736,-2.75508 1.98146,-5.89767 4.73764,-6.28519c2.75618,-0.38752 5.89972,1.98004 6.28709,4.73511l3.48628,24.79571c0.38736,2.75508 -0.27312,4.72097 -2.90018,6.02685c-2.75618,0.38752 -5.64148,-0.14331 -6.81845,-1.85086c0,0 -6.67445,-7.4902 -14.41164,-9.21189c-6.68933,-0.93251 -10.49337,-1.33417 -12.9913,0.89007c-3.28754,3.27177 -4.22114,9.95863 -3.84866,19.2714l3.35716,23.87735c0.38736,2.75508 3.77427,13.51704 18.47391,11.45027l3.67491,-0.51669c3.67491,-0.51669 4.59364,-0.64587 6.30197,-1.82257c1.70833,-1.1767 3.41666,-2.35341 4.20627,-3.40095c1.57921,-2.09507 2.36882,-3.1426 3.0293,-5.10849c0.66048,-1.96589 1.06273,-5.7685 0.80448,-7.60522l-1.16209,-8.26524c-0.38736,-2.75508 1.98145,-5.89768 4.73763,-6.2852"/></g></g></g></g></svg>