<svg version="1.1" xmlns="http://www.w3.org/2000/svg" xmlns:xlink="http://www.w3.org/1999/xlink" width="548.24555" height="782.5" viewBox="0,0,548.24555,782.5"><g transform="translate(-112.5,-433)"><g data-paper-data="{&quot;isPaintingLayer&quot;:true}" fill-rule="nonzero" stroke-linejoin="miter" stroke-miterlimit="10" stroke-dasharray="" stroke-dashoffset="0" style="mix-blend-mode: normal"><path d="M511.39785,735.65542l89.24598,48.41647l-114.13001,35.33188" fill="none" stroke="#000000" stroke-width="5" stroke-linecap="round"/><path d="M517.82097,732.70966c4.19367,10.51653 -0.932,22.44147 -11.44852,26.63515c-10.51652,4.19366 -25.70314,-33.89001 -15.18662,-38.08368c10.51652,-4.19366 22.44147,0.93201 26.63514,11.44854z" fill="#000000" stroke="none" stroke-width="0" stroke-linecap="butt"/><path d="M210.5,792c0,-82.56657 66.93343,-149.5 149.5,-149.5c82.56657,0 149.5,66.93343 149.5,149.5c0,82.56657 -66.93343,149.5 -149.5,149.5c-82.56657,0 -149.5,-66.93343 -149.5,-149.5z" fill="#ffe100" stroke="#000000" stroke-width="5" stroke-linecap="butt"/><path d="M344.5,816.5c0,35.62236 -23.2812,64.5 -52,64.5c-28.7188,0 -52,-28.87764 -52,-64.5c0,-35.62236 23.2812,-64.5 52,-64.5c28.7188,0 52,28.87764 52,64.5z" fill="#ffffff" stroke="#000000" stroke-width="5" stroke-linecap="butt"/><path d="M489.5,767c0,25.95739 -25.74363,47 -57.5,47c-31.75637,0 -57.5,-21.04261 -57.5,-47c0,-25.95739 25.74363,-47 57.5,-47c31.75637,0 57.5,21.04261 57.5,47z" fill="#ffffff" stroke="#000000" stroke-width="5" stroke-linecap="butt"/><path d="M413.5,762c0,-17.67311 14.32689,-32 32,-32c17.67311,0 32,14.32689 32,32c0,17.67311 -14.32689,32 -32,32c-17.67311,0 -32,-14.32689 -32,-32z" fill="#ffffff" stroke="#000000" stroke-width="12.5" stroke-linecap="butt"/><path d="M269.5,839c0,-5.52285 4.47715,-10 10,-10c5.52285,0 10,4.47715 10,10c0,5.52285 -4.47715,10 -10,10c-5.52285,0 -10,-4.47715 -10,-10z" fill="#000000" stroke="#000000" stroke-width="12.5" stroke-linecap="butt"/><path d="M359.54347,790l63.07247,3.41429l39.88406,213.39286l-128,22.19286z" fill="#ad0000" stroke="#000000" stroke-width="5" stroke-linecap="round"/><path d="M358.61594,791.70714l63.07247,3.41429l10.2029,56.33571l-11.13043,22.19286l-15.76811,-34.14286l-17.62319,40.97143l-17.62319,-39.26429l-16.69566,27.31429z" fill="#ffffff" stroke="#000000" stroke-width="5" stroke-linecap="round"/><path d="M408.60337,973.24644c0.70169,15.97598 -12.3889,30.95936 -29.23865,33.46634c-16.84975,2.50698 -31.078,-8.41181 -31.77969,-24.38778c-0.70169,-15.97598 12.3889,-30.95936 29.23865,-33.46634c16.84975,-2.50698 31.078,8.41181 31.77969,24.38778z" fill="#ad6d6d" stroke="none" stroke-width="0" stroke-linecap="butt"/><path d="M363.91017,645.75301c0,0 65.54015,-13.13996 63.39305,17.61595c-2.1471,30.75591 -67.48948,41.06301 -67.48948,41.06301c0,0 17.39189,52.59361 -5.47051,58.34443c-22.8624,5.75082 -37.16718,-47.61933 -37.16718,-47.61933" fill="#ffe100" stroke="#000000" stroke-width="5" stroke-linecap="round"/><path d="M234.80131,854.27287l-114.26568,-118.00151l92.98388,-20.37149" fill="none" stroke="#000000" stroke-width="5" stroke-linecap="round"/><path d="M200.40851,712.01963c5.02048,-10.14785 17.31683,-14.30441 27.46468,-9.28393c10.14785,5.02047 -8.03291,41.76908 -18.18076,36.74861c-10.14785,-5.02047 -14.30441,-17.31682 -9.28393,-27.46468z" fill="#000000" stroke="none" stroke-width="0" stroke-linecap="butt"/><path d="M322.5,929l8,223l-25,61" fill="none" stroke="#000000" stroke-width="5" stroke-linecap="round"/><path d="M457.5,893l192,-35l-133,90l5,41" fill="none" stroke="#000000" stroke-width="5" stroke-linecap="round"/><path d="M152.5,632l144,-199l-10,211l52,-84l65,67l70,-123l94,81l47,445l-265,71l-237,-92z" data-paper-data="{&quot;index&quot;:null}" fill-opacity="0.50196" fill="#ff3300" stroke="#000000" stroke-width="0" stroke-linecap="round"/></g></g></svg>