<svg version="1.1" xmlns="http://www.w3.org/2000/svg" xmlns:xlink="http://www.w3.org/1999/xlink" width="389.78352" height="364.15063" viewBox="0,0,389.78352,364.15063"><g transform="translate(-179.48647,-668.58273)"><g data-paper-data="{&quot;isPaintingLayer&quot;:true}" fill-rule="nonzero" stroke-linejoin="miter" stroke-miterlimit="10" stroke-dasharray="" stroke-dashoffset="0" style="mix-blend-mode: normal"><path d="M517.33347,997.38162l-21.96989,-36.60876l-20.97703,-56.55829" data-paper-data="{&quot;index&quot;:null}" fill="none" stroke="#000000" stroke-width="5" stroke-linecap="round"/><path d="M509.16853,823.29863c0,83.28882 -67.51893,150.80774 -150.80774,150.80774c-83.28882,0 -150.80775,-67.51892 -150.80775,-150.80774c0,-83.28882 67.51893,-150.80775 150.80775,-150.80775c83.28882,0 150.80775,67.51893 150.80775,150.80775z" data-paper-data="{&quot;index&quot;:null}" fill="#ffe100" stroke="#000000" stroke-width="5" stroke-linecap="butt"/><path d="M391.80076,861.98409c0,29.69427 -27.88824,53.76624 -62.29015,53.76624c-34.4019,0 -62.29015,-24.07197 -62.29015,-53.76624c0,-29.69427 27.88824,-53.76624 62.29015,-53.76624c34.40191,0 62.29016,24.07197 62.29016,53.76624z" data-paper-data="{&quot;index&quot;:null}" fill="#ffffff" stroke="#000000" stroke-width="5" stroke-linecap="butt"/><path d="M447.10131,859.7941c-24.2624,0 -43.93095,-23.48484 -43.93095,-52.45486c0,-28.97002 19.66855,-52.45487 43.93095,-52.45487c24.2624,0 43.93095,23.48485 43.93095,52.45487c0,28.97002 -19.66855,52.45486 -43.93095,52.45486z" data-paper-data="{&quot;index&quot;:null}" fill="#ffffff" stroke="#000000" stroke-width="5" stroke-linecap="butt"/><path d="M446.22269,831.82254c-9.77738,0 -17.70352,-7.92614 -17.70352,-17.70352c0,-9.77738 7.92614,-17.70351 17.70352,-17.70351c9.77738,0 17.70352,7.92613 17.70352,17.70351c0,9.77738 -7.92614,17.70352 -17.70352,17.70352z" data-paper-data="{&quot;index&quot;:null}" fill="#ffffff" stroke="#000000" stroke-width="12.5" stroke-linecap="butt"/><path d="M325.14374,888.64427c-12.67439,0 -22.949,-10.27462 -22.949,-22.94901c0,-12.67439 10.27461,-22.949 22.94901,-22.949c12.67439,0 22.94901,10.27461 22.94901,22.949c0,12.67439 -10.27462,22.94901 -22.94901,22.94901z" data-paper-data="{&quot;index&quot;:null}" fill="#000000" stroke="#000000" stroke-width="12.5" stroke-linecap="butt"/><path d="M465.24021,935.51801l-149.4885,0.82609l62.28688,-28.08703l80.28086,-0.82609z" data-paper-data="{&quot;index&quot;:null}" fill="#ffffff" stroke="#000000" stroke-width="5" stroke-linecap="round"/><path d="M347.58721,922.30059l30.45136,-6.60871l8.30491,9.50002l19.37814,-8.26089l24.91475,7.02176l13.84154,-5.36958l17.99398,4.13045" data-paper-data="{&quot;index&quot;:null}" fill="none" stroke="#000000" stroke-width="5" stroke-linecap="round"/><path d="M372.80909,676.23667c0,0 44.39873,-13.44043 62.23775,3.08775c17.83903,16.52818 -27.26194,29.31796 -27.26194,29.31796c0,0 30.16679,21.60684 19.2878,30.60504c-10.87898,8.9982 -60.95203,3.85617 -60.95203,3.85617" data-paper-data="{&quot;index&quot;:null}" fill="#ffe100" stroke="#000000" stroke-width="5" stroke-linecap="round"/><path d="M275.95674,918.80557l-28.71221,64.78519l-45.45943,30.34058" data-paper-data="{&quot;index&quot;:null}" fill="none" stroke="#000000" stroke-width="5" stroke-linecap="round"/><path d="M526.05851,1003.93623c-7.13003,2.64447 -15.05381,-0.99179 -17.69828,-8.12181c-2.64447,-7.13003 0.99179,-15.05382 8.12181,-17.69829c7.13003,-2.64447 15.05381,0.99179 17.69828,8.12181c2.64447,7.13003 -0.99179,15.05382 -8.12181,17.69829z" data-paper-data="{&quot;index&quot;:null}" fill="#000000" stroke="none" stroke-width="0" stroke-linecap="butt"/><path d="M187.21778,1023.35316c-6.83363,-3.33646 -9.66863,-11.58096 -6.33217,-18.41458c3.33646,-6.83362 11.58095,-9.66863 18.41457,-6.33218c6.83362,3.33646 9.66862,11.58095 6.33217,18.41458c-3.33646,6.83362 -11.58094,9.66864 -18.41457,6.33218z" data-paper-data="{&quot;index&quot;:null}" fill="#000000" stroke="none" stroke-width="0" stroke-linecap="butt"/><path d="M338.27365,962.06157l82.64851,4.71284l23.01479,60.90459l23.46491,-30.18509" data-paper-data="{&quot;index&quot;:null}" fill="none" stroke="#000000" stroke-width="5" stroke-linecap="round"/><path d="M566.76999,991.24429l-27.42151,14.3503l-49.16708,-48.77326l-65.74516,-5.79335" data-paper-data="{&quot;index&quot;:null}" fill="none" stroke="#000000" stroke-width="5" stroke-linecap="round"/><path d="M201.5,1002l1,-11" fill="none" stroke="#000000" stroke-width="5" stroke-linecap="round"/></g></g></svg>