<svg version="1.1" xmlns="http://www.w3.org/2000/svg" xmlns:xlink="http://www.w3.org/1999/xlink" width="222" height="222" viewBox="0,0,222,222"><g transform="translate(-249,-689)"><g data-paper-data="{&quot;isPaintingLayer&quot;:true}" fill-rule="nonzero" stroke="#000000" stroke-width="5" stroke-linejoin="miter" stroke-miterlimit="10" stroke-dasharray="" stroke-dashoffset="0" style="mix-blend-mode: normal"><path d="M251.5,800c0,-59.9229 48.5771,-108.5 108.5,-108.5c59.9229,0 108.5,48.5771 108.5,108.5c0,59.9229 -48.5771,108.5 -108.5,108.5c-59.9229,0 -108.5,-48.5771 -108.5,-108.5z" fill="#803d00" stroke-linecap="butt"/><path d="M368.5,855c0,13.80712 -14.7746,25 -33,25c-18.2254,0 -33,-11.19288 -33,-25c0,-13.80712 14.7746,-25 33,-25c18.2254,0 33,11.19288 33,25z" fill="#ffffff" stroke-linecap="butt"/><path d="M339.5,865.5c0,2.48528 -4.02944,4.5 -9,4.5c-4.97056,0 -9,-2.01472 -9,-4.5c0,-2.48528 4.02944,-4.5 9,-4.5c4.97056,0 9,2.01472 9,4.5z" fill="#ffffff" stroke-linecap="butt"/><path d="M416.5,797c18.22539,0 33,11.19288 33,25c0,13.80712 -14.77461,25 -33,25c-18.22539,0 -33,-11.19288 -33,-25c0,-13.80712 14.77461,-25 33,-25z" data-paper-data="{&quot;index&quot;:null}" fill="#ffffff" stroke-linecap="butt"/><path d="M431.5,822c4.97057,0 9,2.01472 9,4.5c0,2.48528 -4.02943,4.5 -9,4.5c-4.97057,0 -9,-2.01472 -9,-4.5c0,-2.48528 4.02943,-4.5 9,-4.5z" data-paper-data="{&quot;index&quot;:null}" fill="#ffffff" stroke-linecap="butt"/><path d="M365.5,893h17" fill="none" stroke-linecap="round"/><path d="M342.5,770l36,16l-19,-30" fill="#803d00" stroke-linecap="round"/></g></g></svg>